<svg width="24" height="24" viewBox="0 0 24 24" fill="none" xmlns="http://www.w3.org/2000/svg">
<g id="Black">
<path id="Vector" d="M0.575428 0.794411L0.575343 0.794357C0.657749 0.660957 0.801512 0.557903 0.943024 0.521111C0.946876 0.521173 0.977318 0.517908 1.05065 0.514456C1.13502 0.510485 1.24827 0.507217 1.38373 0.504801C1.6535 0.499992 2.00016 0.498753 2.35778 0.501175C3.06935 0.511158 3.4218 0.522699 3.65995 0.558784C3.86061 0.589188 3.97138 0.634823 4.19889 0.756144C4.29673 0.809076 4.44964 0.931034 4.60754 1.09916C4.7643 1.26608 4.88682 1.43684 4.9462 1.55962L4.94917 1.56575L4.94921 1.56573C5.03989 1.74685 5.08261 1.84953 5.12403 2.02211C5.1707 2.21658 5.21444 2.49565 5.29038 3.03254L5.29064 3.03441C5.35529 3.47939 5.42294 3.92634 5.43967 4.01394L5.4409 4.02039L5.44094 4.02038L5.46907 4.15789L5.55086 4.55767H5.95892H14.4356C17.4127 4.55767 19.5493 4.56136 20.9624 4.56994C21.6692 4.57424 22.1931 4.57975 22.55 4.58659C22.7289 4.59002 22.863 4.59373 22.9561 4.59765C23.0029 4.59962 23.0361 4.60152 23.0578 4.60317C23.0597 4.60332 23.0614 4.60346 23.063 4.60359C23.3126 4.66835 23.4928 4.88727 23.4998 5.17003C23.4989 5.17436 23.4959 5.19993 23.4866 5.26007C23.4747 5.33728 23.4568 5.44543 23.4334 5.5816C23.3868 5.85339 23.3197 6.22899 23.2386 6.6753C23.0763 7.56751 22.8583 8.73743 22.6361 9.91389C22.4138 11.0903 22.1873 12.2723 22.0081 13.1886C21.9184 13.6468 21.8407 14.0377 21.7813 14.3278C21.7516 14.473 21.7267 14.5917 21.7074 14.6804C21.6977 14.7248 21.6897 14.7604 21.6833 14.7873L21.6757 14.8189C21.6748 14.8223 21.6742 14.8247 21.6737 14.8263C21.6735 14.8273 21.6733 14.828 21.6732 14.8284C21.4466 15.5766 20.7268 16.2885 19.9216 16.528C19.853 16.5476 19.7604 16.5717 18.916 16.5835C18.0842 16.5951 16.5732 16.5963 13.7089 16.5963C13.2926 16.5963 12.904 16.5964 12.5412 16.5965C9.94949 16.5971 8.66994 16.5974 7.97233 16.5626C7.57379 16.5427 7.41283 16.5126 7.32183 16.4835C7.25595 16.4624 7.224 16.444 7.13899 16.3951C7.10157 16.3736 7.05388 16.3462 6.98849 16.3101L6.98636 16.3089L6.98636 16.3089C6.45373 16.0178 5.93992 15.3852 5.77469 14.8398C5.77476 14.8396 5.77406 14.8359 5.77257 14.828C5.76924 14.8105 5.76197 14.7722 5.75032 14.7042C5.73374 14.6074 5.71195 14.4731 5.68543 14.3043C5.63243 13.967 5.56148 13.498 5.47718 12.928C5.30862 11.7884 5.08728 10.2489 4.85064 8.56041L4.85064 8.56037C4.61851 6.90498 4.40394 5.39071 4.24564 4.28399C4.16649 3.73069 4.10136 3.27894 4.0551 2.96224C4.03199 2.804 4.0135 2.67886 4.0003 2.59142C3.99372 2.54787 3.9883 2.5126 3.98419 2.48689L3.97846 2.45218L3.97516 2.43418C3.97508 2.43378 3.97144 2.41401 3.96499 2.39089C3.9647 2.38986 3.96441 2.38882 3.96411 2.38778L3.48343 2.52544C3.42717 2.32409 3.35685 2.31427 1.99251 2.28972L0.575428 0.794411ZM0.575428 0.794411L0.569984 0.802841C0.531867 0.861864 0.527826 0.877535 0.524571 0.890162L0.524534 0.890305C0.517564 0.917339 0.508907 0.972286 0.50439 1.12132L0.504437 1.12132L0.504135 1.12818C0.497043 1.28912 0.500377 1.34203 0.5049 1.36927L0.505054 1.37021C0.506726 1.38043 0.509385 1.39668 0.545411 1.46722C0.574672 1.51982 0.672123 1.63598 0.750649 1.69732C0.751046 1.69763 0.751444 1.69794 0.751841 1.69824L0.843578 1.76829L2.00151 1.7898M0.575428 0.794411L2.00151 1.7898M2.00151 1.7898C2.00161 1.7898 2.0017 1.7898 2.0018 1.7898L2.00151 1.7898Z" stroke="white"/>
<path id="Vector_2" d="M8.13658 18.6611L8.13627 18.6612C7.33169 18.8669 6.72228 19.4425 6.44401 20.2951C6.38245 20.4871 6.34169 20.7497 6.33388 21.0235C6.326 21.2997 6.35278 21.5482 6.40144 21.7152L6.40144 21.7152L6.40214 21.7176C6.6621 22.6267 7.3251 23.2625 8.1163 23.4395C9.22255 23.6842 10.4323 22.9312 10.7694 21.6808L10.7696 21.6801C10.8044 21.5517 10.8269 21.295 10.8191 20.9965C10.8114 20.699 10.7756 20.4398 10.7335 20.3075L10.7332 20.3066C10.345 19.0783 9.16061 18.3987 8.13658 18.6611Z" stroke="white"/>
<path id="Vector_3" d="M17.7642 18.6384L17.7642 18.6384L17.7566 18.6401C16.9197 18.8277 16.2254 19.471 15.9881 20.2556C15.9421 20.4098 15.9038 20.6507 15.8876 20.9114C15.8713 21.1735 15.8801 21.4106 15.9072 21.5582C16.0704 22.441 16.7745 23.2127 17.6058 23.4404L17.6058 23.4404L17.6111 23.4419C17.7284 23.4754 17.9365 23.5 18.1764 23.5C18.4152 23.5 18.6295 23.4756 18.7571 23.4405L18.7571 23.4405L18.7595 23.4399C19.4144 23.2634 19.9671 22.7919 20.2535 22.169C20.4464 21.7387 20.4994 21.4988 20.4994 21.0595C20.4994 20.018 19.8664 19.0995 18.9076 18.7321L18.9076 18.7321L18.9023 18.73C18.7971 18.6883 18.5818 18.6443 18.3277 18.6243C18.0715 18.6041 17.8607 18.6151 17.7642 18.6384Z" stroke="white"/>
</g>
</svg>
