<svg width="24" height="22" viewBox="0 0 24 22" fill="none" xmlns="http://www.w3.org/2000/svg">
<g id="Black">
<g id="Black_2">
<path id="Vector" d="M5.81011 1.02518L5.80779 1.0255C4.04603 1.26878 2.51234 2.29711 1.49164 3.96219C1.02897 4.71849 0.66152 5.77448 0.534051 6.73414C0.499871 6.9923 0.491419 7.45011 0.508742 7.92474C0.526128 8.40109 0.567257 8.83232 0.614877 9.04555C0.923558 10.3679 1.68216 11.8861 2.7643 13.2882L2.76442 13.2883C4.62573 15.7019 7.82397 18.452 11.4438 20.7258L11.4439 20.7259C11.7171 20.8976 11.8232 20.9597 11.8882 20.9875C11.9077 20.9958 11.914 20.9966 11.9161 20.9969L11.9164 20.997C11.9245 20.9982 11.9419 21 11.9983 21C12.0547 21 12.0722 20.9982 12.0802 20.997L12.0806 20.9969C12.0827 20.9966 12.0889 20.9958 12.1084 20.9875C12.1734 20.9597 12.2795 20.8976 12.5527 20.7259L12.5534 20.7255C13.8296 19.926 15.5848 18.668 16.7687 17.7001L16.7692 17.6997C20.8626 14.3616 23.0776 11.2132 23.4631 8.47119L23.4632 8.47086C23.5012 8.20152 23.5099 7.75079 23.4887 7.27563C23.4675 6.80178 23.4189 6.354 23.3586 6.08919C23.0358 4.71295 22.4733 3.67388 21.5583 2.74426C20.8199 1.99778 20.1055 1.55391 19.1543 1.24792L19.153 1.2475C18.5668 1.05715 18.2024 1.00176 17.4837 1.00176C17.1143 1.00176 16.6909 1.03068 16.549 1.05866L16.549 1.05874L16.5402 1.06032C15.7673 1.19848 14.8746 1.57589 14.2052 2.04715C13.9826 2.20634 13.6777 2.47743 13.3839 2.7762C13.0879 3.07718 12.833 3.37597 12.6977 3.58217L12.697 3.58309C12.624 3.69389 12.553 3.79727 12.4967 3.87516C12.4692 3.91315 12.4414 3.9504 12.4167 3.9808C12.4055 3.99467 12.3876 4.01615 12.3667 4.03763C12.3573 4.04721 12.3363 4.06828 12.3075 4.09052C12.2933 4.10145 12.2662 4.12129 12.2291 4.14044C12.2008 4.15501 12.116 4.19653 11.9983 4.19653C11.8807 4.19653 11.7958 4.155 11.7676 4.14043C11.7304 4.12129 11.7033 4.10144 11.6891 4.09052C11.6603 4.06828 11.6393 4.0472 11.63 4.03763C11.609 4.01614 11.5912 3.99467 11.5799 3.9808C11.5553 3.95039 11.5274 3.91315 11.5 3.87516C11.4437 3.79727 11.3727 3.69389 11.2996 3.58309L11.299 3.58214C11.169 3.38404 10.9044 3.07512 10.5984 2.76345C10.294 2.45339 9.98608 2.17869 9.78239 2.03643C9.13406 1.59248 8.29681 1.22866 7.5871 1.08687L7.58596 1.08664C7.40517 1.05009 7.06028 1.01902 6.68966 1.0062C6.31735 0.993322 5.97944 1.00098 5.81011 1.02518Z" stroke="white"/>
</g>
</g>
</svg>
