<svg width="19" height="24" viewBox="0 0 19 24" fill="none" xmlns="http://www.w3.org/2000/svg">
<g id="Black">
<path id="Vector" d="M8.66395 0.0470858C6.93063 0.306629 5.32989 1.37974 4.45095 2.8821C3.01716 5.33278 3.42471 8.38741 5.45265 10.349C6.69003 11.5518 8.24167 12.0959 10.0339 11.9611C11.5856 11.8413 13.1323 11.0128 14.0898 9.77995C14.7036 8.98635 15.1406 8.03802 15.3223 7.07971C15.4156 6.60554 15.4008 5.24793 15.3026 4.79373C14.8902 2.94199 13.8001 1.48955 12.1944 0.656014C11.6101 0.35155 11.0356 0.161884 10.4071 0.0620594C9.90134 -0.0128088 9.13043 -0.0227909 8.66395 0.0470858ZM10.4906 1.16512C13.1814 1.7441 14.9 4.5292 14.2125 7.1995C13.7608 8.95141 12.4399 10.304 10.7017 10.7782C10.3433 10.878 10.1714 10.893 9.47414 10.893C8.74252 10.893 8.61976 10.878 8.22203 10.7582C6.86189 10.344 5.76199 9.4106 5.15312 8.15282C4.77012 7.36421 4.68665 6.9699 4.69156 5.98164C4.69647 5.01334 4.77012 4.64899 5.13348 3.89032C5.85038 2.36301 7.2498 1.32484 8.89473 1.09025C9.28755 1.03535 10.0585 1.07028 10.4906 1.16512Z" fill="white"/>
<path id="Vector_2" d="M8.11396 13.5484C6.20387 13.8279 4.42636 14.7014 3.04658 16.039C1.25925 17.766 0.237914 20.037 0.0365934 22.7322C-0.0174194 23.5009 -0.0174194 23.5408 0.0758754 23.7055C0.129888 23.8004 0.228093 23.9052 0.296837 23.9351C0.390132 23.985 2.38861 24 9.54285 24H18.6661L18.833 23.8303C18.9951 23.6656 19 23.6456 19 23.2863C19 22.3429 18.779 21.0202 18.455 20.032C17.9541 18.5047 17.1587 17.2269 15.9998 16.0889C14.5759 14.6964 12.8671 13.8479 10.8883 13.5484C10.2499 13.4486 8.76212 13.4486 8.11396 13.5484ZM10.4316 14.5666C11.0748 14.6415 11.5413 14.7513 12.1797 14.9659C15.1995 15.9841 17.3747 18.7093 17.8461 22.0534C17.8854 22.3429 17.9197 22.6624 17.9197 22.7622V22.9518H9.49374H1.06284L1.09721 22.5376C1.2838 20.2766 2.40334 17.9956 4.02863 16.5831C5.80614 15.0358 8.13851 14.3021 10.4316 14.5666Z" fill="white"/>
</g>
</svg>
