<svg width="58" height="56" viewBox="0 0 58 56" fill="none" xmlns="http://www.w3.org/2000/svg">
<ellipse cx="29" cy="28" rx="29" ry="28" fill="#D9D9D9"/>
<path d="M29.5 10.25C20.5251 10.25 13.25 17.5251 13.25 26.5C13.25 35.4749 20.5251 42.75 29.5 42.75C38.4749 42.75 45.75 35.4749 45.75 26.5C45.75 17.5251 38.4749 10.25 29.5 10.25Z" stroke="black" stroke-width="1.5" stroke-linecap="round" stroke-linejoin="round"/>
<path d="M16.9395 36.8123C16.9395 36.8123 20.5616 32.1875 29.4991 32.1875C38.4366 32.1875 42.0603 36.8123 42.0603 36.8123M29.4991 26.5C30.792 26.5 32.032 25.9864 32.9462 25.0721C33.8605 24.1579 34.3741 22.9179 34.3741 21.625C34.3741 20.3321 33.8605 19.0921 32.9462 18.1779C32.032 17.2636 30.792 16.75 29.4991 16.75C28.2061 16.75 26.9662 17.2636 26.0519 18.1779C25.1377 19.0921 24.6241 20.3321 24.6241 21.625C24.6241 22.9179 25.1377 24.1579 26.0519 25.0721C26.9662 25.9864 28.2061 26.5 29.4991 26.5Z" stroke="black" stroke-width="1.5" stroke-linecap="round" stroke-linejoin="round"/>
</svg>
